<svg xmlns="http://www.w3.org/2000/svg" viewBox="0 0 400 300" width="406" height="306" class="illustration styles_illustrationTablet__1DWOa"><g id="_511_data_analytics_outline" data-name="#511_data_analytics_outline"><path d="M309.19,110.37v86.24a3.91,3.91,0,0,1-3.82,4h-109a3.92,3.92,0,0,1-3.83-4V110.37a3.92,3.92,0,0,1,3.83-4H305.37A3.91,3.91,0,0,1,309.19,110.37Z" fill="#fff"></path><path d="M305.37,201.62h-109a4.93,4.93,0,0,1-4.83-5V110.37a4.93,4.93,0,0,1,4.83-5H305.37a4.93,4.93,0,0,1,4.82,5v86.24A4.92,4.92,0,0,1,305.37,201.62Zm-109-94.27a2.94,2.94,0,0,0-2.83,3v86.24a2.93,2.93,0,0,0,2.83,3H305.37a2.92,2.92,0,0,0,2.82-3V110.37a2.93,2.93,0,0,0-2.82-3Z" fill="#093f68"></path><path d="M221.33,125.28H198a1,1,0,0,1,0-2h23.35a1,1,0,0,1,0,2Z" fill="#fff"></path><path d="M209.66,136.64H198a1,1,0,0,1,0-2h11.68a1,1,0,0,1,0,2Z" fill="#fff"></path><path d="M299.3,188.06H203.82a1,1,0,0,1,0-2H299.3a1,1,0,0,1,0,2Z" fill="#093f68"></path><rect x="213.24" y="158.83" width="19.06" height="28.24" fill="#f56132"></rect><path d="M232.31,188.06H213.24a1,1,0,0,1-1-1V158.83a1,1,0,0,1,1-1h19.07a1,1,0,0,1,1,1v28.23A1,1,0,0,1,232.31,188.06Zm-18.07-2h17.07V159.83H214.24Z" fill="#093f68"></path><rect x="241.45" y="154.32" width="19.06" height="32.74" fill="#ffbc0e"></rect><path d="M260.51,188.06H241.45a1,1,0,0,1-1-1V154.32a1,1,0,0,1,1-1h19.06a1,1,0,0,1,1,1v32.74A1,1,0,0,1,260.51,188.06Zm-18.06-2h17.06V155.32H242.45Z" fill="#093f68"></path><rect x="269.66" y="132.44" width="19.06" height="54.62" fill="#70cc40"></rect><path d="M288.72,188.06H269.66a1,1,0,0,1-1-1V132.44a1,1,0,0,1,1-1h19.06a1,1,0,0,1,1,1v54.62A1,1,0,0,1,288.72,188.06Zm-18.06-2h17.06V133.44H270.66Z" fill="#093f68"></path><path d="M180,207c-3,9.21-13,3-19.21-7.84v20.08H104.48l-3.21-33.85c0-12.6,12.15-24.43,23.19-24.43h19.08c7.22,0,12.78,1.89,17.64,6S183,197.78,180,207Z" fill="#68e8fc"></path><path d="M160.77,220.22H104.48a1,1,0,0,1-1-.91l-3.21-33.85c0-12.69,12.21-25.52,24.19-25.52h19.08c7.43,0,13.24,2,18.28,6.22,5.4,4.55,22.28,31.5,19.11,41.13h0c-1.29,3.92-3.64,5-5.39,5.12-4.11.42-9.41-3.43-13.77-9.79v16.6A1,1,0,0,1,160.77,220.22Zm-55.38-2h54.38V199.14a1,1,0,0,1,.74-1,1,1,0,0,1,1.13.47c4.12,7.21,9.89,12.16,13.7,11.77,1.68-.17,2.92-1.43,3.69-3.75,2.81-8.55-13.59-34.84-18.5-39-4.66-3.92-10.05-5.75-17-5.75H124.46c-11,0-22.19,11.82-22.19,23.43ZM180,207h0Z" fill="#093f68"></path><path d="M160.77,200.14a1,1,0,0,1-1-1V171.59a1,1,0,0,1,2,0v27.55A1,1,0,0,1,160.77,200.14Z" fill="#093f68"></path><path d="M101.27,185.37S91.72,221.26,104,224c14.65,3.32,34.71-18.17,34.71-18.17L133,193.12l-15.8,10.23,3.33-26.49" fill="#68e8fc"></path><path d="M107.22,225.39a15.92,15.92,0,0,1-3.45-.37,7.28,7.28,0,0,1-4.69-3.55c-5.8-9.6.93-35.27,1.22-36.36a1,1,0,0,1,1.23-.71,1,1,0,0,1,.71,1.22c-.07.26-6.82,25.94-1.45,34.82a5.25,5.25,0,0,0,3.42,2.62c12.74,2.89,30.25-14.29,33.3-17.4l-5-11.06-14.82,9.59a1,1,0,0,1-1.07,0,1,1,0,0,1-.46-1l3.32-26.5a1,1,0,0,1,2,.25l-3.06,24.37,14-9.07a1,1,0,0,1,.82-.12,1,1,0,0,1,.63.55l5.72,12.75a1,1,0,0,1-.18,1.09C138.65,207.38,121.67,225.39,107.22,225.39Z" fill="#093f68"></path><path d="M131.65,156.55h10.85a0,0,0,0,1,0,0v6.25a4.61,4.61,0,0,1-4.61,4.61h-1.64a4.61,4.61,0,0,1-4.61-4.61v-6.25a0,0,0,0,1,0,0Z" transform="translate(-31.12 32.61) rotate(-12.19)" fill="#ffc9b0"></path><path d="M136.44,168.57a5.64,5.64,0,0,1-5.47-4.43l-1.32-6.1a1.06,1.06,0,0,1,.14-.76,1,1,0,0,1,.63-.43l10.61-2.3a1,1,0,0,1,1.19.77l1.32,6.11a5.61,5.61,0,0,1-4.3,6.66l-1.6.35A6.12,6.12,0,0,1,136.44,168.57Zm-4.62-10,1.11,5.13a3.6,3.6,0,0,0,4.29,2.76l1.6-.34h0a3.62,3.62,0,0,0,2.76-4.29l-1.11-5.13Z" fill="#093f68"></path><ellipse cx="157.25" cy="122.25" rx="8.13" ry="9.09" transform="translate(-22.27 35.97) rotate(-12.19)" fill="#ffc9b0"></ellipse><path d="M157.62,132.3c-4.29,0-8.26-3.33-9.3-8.12-1.17-5.43,1.88-10.72,6.8-11.79s9.88,2.5,11.06,7.93a10.61,10.61,0,0,1-1.08,7.49,8.63,8.63,0,0,1-5.72,4.3A8.11,8.11,0,0,1,157.62,132.3Zm-.74-18.09a6.17,6.17,0,0,0-1.34.14c-3.84.83-6.2,5.05-5.26,9.41s4.83,7.23,8.68,6.4a6.7,6.7,0,0,0,4.4-3.33,8.54,8.54,0,0,0,.86-6.08C163.39,116.9,160.25,114.21,156.88,114.21Z" fill="#093f68"></path><path d="M90.57,106.49c1.4,9,4.16,24.74,8.7,32.26,7.82,12.95,23.21,23.45,36.88,20.5a28.55,28.55,0,0,0,22.32-21.72,34.92,34.92,0,0,0,.08-15.67s.15-3.85-3.67-17.9-5.95-21.35-34.15-19.84C99,85.28,89.17,97.5,90.57,106.49Z" fill="#ffc9b0"></path><path d="M131.61,160.71c-10.71,0-24.35-6.78-33.19-21.44-3.4-5.62-6.29-16.3-8.84-32.63-.62-4,.74-8.24,3.82-12S104.33,84,120.68,83.12c29.17-1.56,31.3,6.3,35.17,20.58,3.46,12.77,3.69,17.23,3.7,18.06a36.1,36.1,0,0,1-.11,16,29.66,29.66,0,0,1-23.07,22.47A22.8,22.8,0,0,1,131.61,160.71Zm-4.06-75.79c-2.06,0-4.31.06-6.76.2C109.41,85.73,100,89.64,95,95.86c-2.73,3.36-3.93,7.08-3.4,10.47h0c.92,5.91,3.72,23.88,8.57,31.9,6.39,10.6,19,20.52,31.24,20.52a21.31,21.31,0,0,0,4.57-.48,27.69,27.69,0,0,0,21.56-21,34.26,34.26,0,0,0,.07-15.22,1,1,0,0,1,0-.25s0-4-3.63-17.6C150.53,91.74,148.68,84.92,127.55,84.92Z" fill="#093f68"></path><path d="M145.32,133c-3.8-.46-8.94,1-13.5,4.58-6,4.78-3.75,10.66-9.43,10a18.78,18.78,0,0,1-10.85-5c-3.72-3.7-4.08-9.63-5.31-14.52a14.5,14.5,0,0,0-1.92-5,7.45,7.45,0,0,0-7.62-2.88c-9.87,2.33-3.27,15-1.31,20.7l4.29-.93.63,3.52a33.39,33.39,0,0,0,35.85,15.75,28.55,28.55,0,0,0,22.32-21.72,33.89,33.89,0,0,1-3.87,1.33c-3.77.95-2.52-2.74-6.15-4.87A8,8,0,0,0,145.32,133Z" fill="#725858"></path><path d="M129,161a34.37,34.37,0,0,1-29.53-17,1.4,1.4,0,0,1-.13-.34l-.44-2.5-3.28.71a1,1,0,0,1-1.16-.66c-.26-.76-.61-1.65-1-2.62-1.87-4.81-4.43-11.4-2.15-15.73a7.39,7.39,0,0,1,5.16-3.65,8.5,8.5,0,0,1,8.67,3.28,15.59,15.59,0,0,1,2.07,5.31c.28,1.1.52,2.27.75,3.4.79,3.93,1.61,8,4.3,10.66a17.68,17.68,0,0,0,10.26,4.69c2.4.29,2.82-.67,3.84-3a16.15,16.15,0,0,1,4.84-6.78c4.39-3.48,9.85-5.32,14.25-4.79h0a9.07,9.07,0,0,1,3.51,1.12,8.2,8.2,0,0,1,3.15,3.52c.7,1.28.86,1.59,2.25,1.24a31.4,31.4,0,0,0,3.75-1.29,1,1,0,0,1,1,.17,1,1,0,0,1,.32,1,29.66,29.66,0,0,1-23.07,22.47A35.41,35.41,0,0,1,129,161Zm-27.72-17.88a32.27,32.27,0,0,0,34.69,15.13A27.66,27.66,0,0,0,157,139.16c-.81.29-1.53.51-2.15.67-2.89.73-3.78-.91-4.5-2.23a6.14,6.14,0,0,0-2.4-2.75,7.24,7.24,0,0,0-2.74-.85h0c-3.89-.47-8.78,1.2-12.76,4.37a14,14,0,0,0-4.26,6c-1,2.39-2,4.64-5.91,4.18a19.82,19.82,0,0,1-11.43-5.26c-3.11-3.1-4-7.46-4.85-11.68-.24-1.16-.46-2.25-.73-3.31a13.76,13.76,0,0,0-1.77-4.64,6.48,6.48,0,0,0-6.57-2.49,5.39,5.39,0,0,0-3.85,2.64c-1.85,3.51.51,9.61,2.24,14.06.26.66.5,1.29.71,1.87l3.44-.75a1,1,0,0,1,.76.15,1,1,0,0,1,.43.65Z" fill="#093f68"></path><ellipse cx="124.89" cy="121.49" rx="2.95" ry="2.94" transform="translate(-22.84 29.12) rotate(-12.19)" fill="#093f68"></ellipse><circle cx="147.81" cy="115.3" r="2.95" fill="#093f68"></circle><path d="M135.15,128.68a1,1,0,0,1-.09-2,28.32,28.32,0,0,0,6.55-1.4c0-.85-2.28-3.54-4.84-5.77a1,1,0,1,1,1.31-1.51c1.78,1.55,5.88,5.39,5.5,7.68a1.88,1.88,0,0,1-1.21,1.45,30.19,30.19,0,0,1-7.12,1.55Z" fill="#093f68"></path><path d="M114,116.71l-.3,0a2,2,0,0,1-1.68-2.28c0-.23.92-5.54,7.4-6.87,6.18-1.27,9.07,1.28,9.38,1.58a2,2,0,1,1-2.76,2.89s-1.73-1.4-5.82-.56c-3.78.78-4.24,3.53-4.24,3.56A2,2,0,0,1,114,116.71Z" fill="#093f68"></path><path d="M142.6,109.57a2,2,0,0,1-1.17-.38,2,2,0,0,1-.45-2.78,12.79,12.79,0,0,1,7.69-4.64c4.43-.75,6.74,1.38,7.4,2.75l-3.6,1.74,0,.09s-.69-1-3.17-.63a8.83,8.83,0,0,0-5.12,3A2,2,0,0,1,142.6,109.57Z" fill="#093f68"></path><path d="M101.45,128.53s-8.73-3.61-11.36,4,3.81,18.33,15.64,12.26Z" fill="#ffc9b0"></path><path d="M99.13,147.64a10,10,0,0,1-6.68-2.45,12.22,12.22,0,0,1-3.3-12.95,7.75,7.75,0,0,1,4.14-4.83c3.81-1.72,8.35.12,8.54.2a1,1,0,0,1,.58.67l4.29,16.3a1,1,0,0,1-.51,1.14A15.49,15.49,0,0,1,99.13,147.64Zm-2.17-19a6.88,6.88,0,0,0-2.86.56A5.83,5.83,0,0,0,91,132.89a10.31,10.31,0,0,0,2.72,10.79c2.74,2.36,6.55,2.57,10.8.61l-4-15A12.06,12.06,0,0,0,97,128.68Z" fill="#093f68"></path><path d="M135.77,143.12l10.69-2.45s.93,9-3.38,10.48S135.77,143.12,135.77,143.12Z" fill="#fff"></path><path d="M142.15,152.31a3.93,3.93,0,0,1-1.77-.44c-3.35-1.68-5.34-7.76-5.56-8.45a1,1,0,0,1,.08-.8,1.06,1.06,0,0,1,.65-.48l10.68-2.44a1,1,0,0,1,.81.16,1,1,0,0,1,.41.71c0,.4,1,9.77-4,11.52A3.72,3.72,0,0,1,142.15,152.31Zm-5.06-8.47c.77,2,2.35,5.33,4.18,6.24a1.76,1.76,0,0,0,1.48.12c2.51-.88,2.88-5.56,2.79-8.29Z" fill="#093f68"></path><path d="M121.37,91.48a16.8,16.8,0,0,1-.49,13.69,24.94,24.94,0,0,0,18.52-18.1,29.6,29.6,0,0,1,5.22,11.77c5.72-.85,12-4.28,12.59-10,.41-4-2.2-7.81-5.62-9.89s-7.51-2.71-11.5-3A87.16,87.16,0,0,0,100,82.24c-4.74,2-9.62,4.67-11.82,9.3-2,4.17-1.38,9-.7,13.6.58,3.79,1.38,12.62,5.49,14.51,3.7,1.69,8.74-2.78,11.47-4.88a51.51,51.51,0,0,0,10.28-10.57C116.1,102.26,122.38,93.93,121.37,91.48Z" fill="#725858"></path><path d="M94.74,121a5.25,5.25,0,0,1-2.22-.47c-4.2-1.93-5.25-9.49-5.87-14q-.11-.69-.18-1.26c-.76-5-1.27-9.84.78-14.16,2.45-5.17,7.88-8,12.34-9.8a88.07,88.07,0,0,1,40.58-6.44c3.83.31,8.23.92,11.94,3.18,4.12,2.51,6.51,6.76,6.09,10.84-.64,6.26-7.21,10-13.43,10.93a1,1,0,0,1-1.13-.8,28.77,28.77,0,0,0-3.87-9.65,26,26,0,0,1-18.68,16.77,1,1,0,0,1-1-.36,1,1,0,0,1-.1-1.06,15.77,15.77,0,0,0,1.45-9.17,60.92,60.92,0,0,1-5.62,8.79l-.32.44A52.75,52.75,0,0,1,105,115.57l-.85.66C101.65,118.21,98.08,121,94.74,121ZM133.3,76.61a86.23,86.23,0,0,0-33,6.55c-4.12,1.72-9.14,4.27-11.29,8.81-1.81,3.82-1.32,8.33-.62,13,.06.38.12.81.19,1.28.53,3.84,1.52,11,4.73,12.47,2.78,1.28,7-2.08,9.57-4.08l.87-.68a50.76,50.76,0,0,0,10.08-10.36l.32-.45c6.47-8.85,6.42-10.9,6.25-11.32a1,1,0,1,1,1.85-.75h0a17.9,17.9,0,0,1,.29,12.59,23.91,23.91,0,0,0,15.84-16.85,1,1,0,0,1,.78-.75,1,1,0,0,1,1,.39,30.61,30.61,0,0,1,5.18,11.21c5-1,10.32-4.13,10.82-9,.39-3.77-2.3-7.2-5.14-8.93-3.35-2-7.47-2.61-11-2.89Q136.66,76.61,133.3,76.61Z" fill="#093f68"></path><rect x="134.97" y="168.45" width="7.45" height="6.29" rx="2.24" transform="translate(-12.92 11.3) rotate(-4.46)" fill="#ffbc0e"></rect><path d="M137.28,175.85a3.24,3.24,0,0,1-3.22-3l-.15-1.81a3.25,3.25,0,0,1,3-3.48l3-.23a3.25,3.25,0,0,1,3.48,3l.14,1.81a3.25,3.25,0,0,1-3,3.48l-3,.23Zm2.83-6.52H140l-3,.23a1.24,1.24,0,0,0-1.13,1.33l.14,1.81a1.23,1.23,0,0,0,1.33,1.13l3-.23h0a1.16,1.16,0,0,0,.84-.43,1.18,1.18,0,0,0,.29-.9l-.14-1.81A1.24,1.24,0,0,0,140.11,169.33Z" fill="#093f68"></path><polygon points="137.46 174.84 134.44 205.97 142.57 211.64 148.1 204.9 140.42 174.61 137.46 174.84" fill="#ffbc0e"></polygon><path d="M142.57,212.64a1,1,0,0,1-.57-.18l-8.13-5.67a1,1,0,0,1-.43-.92l3-31.12a1,1,0,0,1,.92-.91l3-.23a1,1,0,0,1,1,.75l7.68,30.3a1,1,0,0,1-.2.88l-5.52,6.73A1,1,0,0,1,142.57,212.64Zm-7.08-7.16,6.9,4.81,4.62-5.63-7.35-29-1.29.1Z" fill="#093f68"></path><rect x="158.33" y="165.43" width="10.22" height="21.05" transform="translate(182.93 -63.4) rotate(47.54)" fill="#fff"></rect><path d="M159.12,187.83a1,1,0,0,1-.74-.32L151.49,180a1,1,0,0,1-.27-.72,1,1,0,0,1,.33-.69l15.53-14.21a1,1,0,0,1,1.41.06l6.9,7.54a1,1,0,0,1,.26.72,1,1,0,0,1-.32.69L159.8,187.57A1,1,0,0,1,159.12,187.83Zm-5.48-8.47,5.54,6.06,14.06-12.86-5.55-6.06Z" fill="#093f68"></path><rect x="167.75" y="154.31" width="15.69" height="21.05" transform="translate(178.67 -75.98) rotate(47.54)" fill="#fff"></rect><path d="M173.12,178.73h0a1,1,0,0,1-.7-.32l-10.59-11.58a1,1,0,0,1,.07-1.41l15.53-14.21a1,1,0,0,1,1.41.06l10.59,11.58a1,1,0,0,1-.06,1.41L173.8,178.47A1,1,0,0,1,173.12,178.73Zm-9.18-12.51,9.24,10.1,14.06-12.86L178,153.36Z" fill="#093f68"></path><rect x="132.22" y="173.24" width="15.69" height="48.23" rx="3.56" transform="translate(191.11 -39.2) rotate(47.54)" fill="#fff"></rect><path d="M127.79,218.94a4.58,4.58,0,0,1-3.37-1.48h0l-5.78-6.32a4.56,4.56,0,0,1,.29-6.44L149.25,177a4.57,4.57,0,0,1,6.45.29l5.78,6.32a4.56,4.56,0,0,1-.29,6.44l-30.32,27.75A4.56,4.56,0,0,1,127.79,218.94Zm24.54-41.18a2.55,2.55,0,0,0-1.73.67l-30.32,27.74a2.56,2.56,0,0,0-.16,3.62l5.78,6.32h0a2.56,2.56,0,0,0,3.62.16l30.32-27.75a2.54,2.54,0,0,0,.16-3.61l-5.78-6.32A2.54,2.54,0,0,0,152.33,177.76Z" fill="#093f68"></path><path d="M174.65,165.7A36.87,36.87,0,1,0,177,113.61,36.88,36.88,0,0,0,174.65,165.7Z" fill="#fff" stroke="#093f68" stroke-linecap="round" stroke-linejoin="round" stroke-width="2"></path><ellipse cx="201.86" cy="140.81" rx="25.35" ry="25.34" transform="translate(57.7 340.28) rotate(-89.04)" fill="#68e8fc"></ellipse><path d="M201.87,167.15h-.45a26.89,26.89,0,1,1,.45,0Zm0-50.69a24.32,24.32,0,0,0-24.33,23.94h0a24.34,24.34,0,1,0,24.74-23.94Zm-25.33,23.92h0Z" fill="#093f68"></path><path d="M191,156h-.05a1,1,0,0,1-.86-.58l-5.61-12.2-3.12,3.91a1,1,0,0,1-1.57-1.24l4.13-5.19a1,1,0,0,1,.91-.37,1,1,0,0,1,.78.58l5.5,12,12-20.21a1,1,0,0,1,.74-.49,1,1,0,0,1,.83.3L212,140l9.45-11.22a1,1,0,0,1,1.53,1.29l-10.16,12.06a1,1,0,0,1-1.48.06l-7.13-7.34-12.33,20.73A1,1,0,0,1,191,156Z" fill="#fff"></path><path d="M122.59,199.84a12.61,12.61,0,0,1,4-5.38,14.84,14.84,0,0,1,3.61-1.68,23.14,23.14,0,0,1,9.1-1.43,4.13,4.13,0,0,1,3.22,1.73,2,2,0,0,1,.29,1.75c-.35.93-1.5,1.22-2.48,1.34a31.2,31.2,0,0,1-6.83.06,13.63,13.63,0,0,1,4.3,1.1c.76.33,1.62,1.17,1.14,1.86a1.42,1.42,0,0,1-1.07.46,11.64,11.64,0,0,1-6-1,4.79,4.79,0,0,1,2.66,1.88,1.43,1.43,0,0,1,.33.86c0,1-1.35,1.21-2.31,1.13l-3.66-.27a6.19,6.19,0,0,1,3,.63,2.13,2.13,0,0,1,1,2.58,2.74,2.74,0,0,1-2,1.26c-3,.62-7.53.06-8.56-3.48A5.64,5.64,0,0,1,122.59,199.84Z" fill="#ffc9b0"></path><path d="M128.64,208c-3,0-6.36-1.08-7.33-4.42a6.54,6.54,0,0,1,.34-4.07h0a13.67,13.67,0,0,1,4.35-5.85,15.74,15.74,0,0,1,3.85-1.8,24.36,24.36,0,0,1,9.51-1.49,5.14,5.14,0,0,1,4,2.19,2.93,2.93,0,0,1,.39,2.64c-.63,1.67-2.64,1.91-3.3,2-.35.05-.69.08-1,.11a2.37,2.37,0,0,1,.59,1,1.74,1.74,0,0,1-.25,1.5,2.44,2.44,0,0,1-1.79.88,11.87,11.87,0,0,1-2.23,0,2.06,2.06,0,0,1,.13.76,1.86,1.86,0,0,1-.62,1.39,3,3,0,0,1-1.53.68,2.71,2.71,0,0,1,.08,2.42,3.64,3.64,0,0,1-2.75,1.81A11.9,11.9,0,0,1,128.64,208Zm9.48-15.67a23.23,23.23,0,0,0-7.59,1.41,14.18,14.18,0,0,0-3.37,1.55,11.54,11.54,0,0,0-3.63,4.92h0a4.68,4.68,0,0,0-.3,2.82c.86,3,5,3.27,7.4,2.77.74-.15,1.2-.4,1.35-.71s-.13-1-.64-1.29a3.38,3.38,0,0,0-1.27-.4l-1.25-.09a1,1,0,0,1-.93-1.06,1,1,0,0,1,1-.94c.42,0,.89,0,1.36.1l2.33.18a2.24,2.24,0,0,0,1.25-.2,1.5,1.5,0,0,1-.16-.23,3.92,3.92,0,0,0-1.28-1.15,8.93,8.93,0,0,1-1-.39,1,1,0,0,1,.68-1.87,5.46,5.46,0,0,1,1.1.43,10.62,10.62,0,0,0,4.51.5l.2,0a1.89,1.89,0,0,0-.57-.39,12.49,12.49,0,0,0-3.65-1l-.34,0a1,1,0,0,1,.18-2l.35,0a30,30,0,0,0,6.28-.09c1-.11,1.54-.36,1.67-.7a1.07,1.07,0,0,0-.2-.86,3.19,3.19,0,0,0-2.46-1.27C138.86,192.32,138.49,192.31,138.12,192.31Zm-15.53,7.53h0Z" fill="#093f68"></path><path d="M110.27,207.91a1,1,0,0,1-.46-1.89l6.91-3.56a1,1,0,0,1,.92,1.78l-6.91,3.56A1,1,0,0,1,110.27,207.91Z" fill="#093f68"></path><path d="M293.81,119.25H268.73a1,1,0,0,1,0-2h25.08a1,1,0,0,1,0,2Z" fill="#dfeaef"></path><path d="M263.37,119.25H252.82a1,1,0,0,1,0-2h10.55a1,1,0,0,1,0,2Z" fill="#dfeaef"></path><path d="M164.33,175.08c.28-.5.94-1,1.32-.58a.94.94,0,0,1,.2.54l.37,2.4a11.15,11.15,0,0,1,1.33-4.82,1.87,1.87,0,0,1,.66-.81,1.49,1.49,0,0,1,1.81.46,4.35,4.35,0,0,1,.75,1.89,17.54,17.54,0,0,0,.43-2.61c.2-.87.91-1.76,1.78-1.61s1.21,1.07,1.43,1.87a2.2,2.2,0,0,0,.52-1.19c.12-.42.45-.89.89-.83s.58.46.71.82a12.26,12.26,0,0,1-.44,9.81c-1.81,3.43-6.46,6.39-10.35,4.63C162.5,183.6,162.87,177.68,164.33,175.08Z" fill="#ffc9b0"></path><path d="M168.21,186.58a6.87,6.87,0,0,1-2.89-.62,5,5,0,0,1-2.63-3.15,11.52,11.52,0,0,1,.77-8.22,2.4,2.4,0,0,1,1.66-1.23,1.4,1.4,0,0,1,.9.18,11.86,11.86,0,0,1,.65-1.4,2.9,2.9,0,0,1,1-1.18,2.34,2.34,0,0,1,2.58.19,2.75,2.75,0,0,1,2.88-2.2,2.22,2.22,0,0,1,1.19.62,1.7,1.7,0,0,1,1.61-.77,1.93,1.93,0,0,1,1.52,1.46,13.38,13.38,0,0,1-.5,10.63C175.31,184.05,171.76,186.58,168.21,186.58ZM165,176a9.61,9.61,0,0,0-.4,6.19,3.07,3.07,0,0,0,1.56,1.95c3.26,1.47,7.39-1,9-4.19a11.25,11.25,0,0,0,.56-8.53,2.34,2.34,0,0,1-.71,1.16,1,1,0,0,1-.94.19,1,1,0,0,1-.66-.69c-.22-.81-.48-1.13-.63-1.15s-.53.34-.65.84a8.6,8.6,0,0,0-.12.94,6.15,6.15,0,0,1-.35,1.81,1,1,0,0,1-1.9-.14,3.61,3.61,0,0,0-.54-1.46c-.18-.22-.47-.3-.54-.25a1.32,1.32,0,0,0-.29.42,10.09,10.09,0,0,0-1.21,4.39,1,1,0,0,1-.95,1,1,1,0,0,1-1-.85Zm-.66-.92h0Z" fill="#093f68"></path><path d="M163.44,197.26a1,1,0,0,1-1-.93,47.39,47.39,0,0,1,.86-11.17,1,1,0,0,1,1.18-.77,1,1,0,0,1,.78,1.18,45.71,45.71,0,0,0-.82,10.62,1,1,0,0,1-.93,1.07Z" fill="#093f68"></path></g></svg>